
<svg   version="1.0" xmlns="http://www.w3.org/2000/svg"
 width="90px" height="90px" viewBox="0 0 500.000000 500.000000"
 preserveAspectRatio="xMidYMid meet">

<g transform="translate(0.000000,500.000000) scale(0.100000,-0.100000)"
fill="#000000" stroke="none">
<path d="M2857 3741 c-18 -7 -18 -7 0 -21 10 -8 15 -10 11 -6 -4 5 -3 15 3 23
13 14 12 15 -14 4z"/>
<path d="M3039 3731 c10 -6 -13 -10 -65 -13 -45 -2 -82 1 -86 7 -4 6 -8 2 -8
-9 0 -13 -5 -17 -20 -13 -11 3 -18 1 -14 -4 7 -12 -3 -11 -27 1 -12 7 -19 7
-19 1 0 -6 -6 -8 -14 -5 -8 3 -17 0 -21 -5 -3 -6 -11 -9 -16 -5 -6 3 -5 12 3
22 11 15 11 15 -3 5 -9 -7 -20 -9 -25 -5 -4 4 -3 0 4 -10 9 -12 10 -18 2 -23
-6 -4 -9 -13 -6 -21 3 -8 0 -11 -10 -7 -7 3 -14 9 -14 14 0 5 -11 3 -25 -3
-14 -6 -25 -15 -25 -20 0 -4 -7 -8 -16 -8 -11 0 -14 -6 -9 -22 3 -13 3 -18 -2
-13 -14 19 -32 11 -69 -29 -28 -30 -33 -41 -22 -48 9 -7 7 -8 -7 -4 -15 4 -27
-4 -47 -33 -16 -22 -28 -42 -28 -45 0 -3 -11 -21 -24 -41 -29 -42 -86 -196
-86 -231 0 -28 4 -26 -113 -47 -199 -36 -397 -174 -502 -351 -9 -16 -174 -60
-184 -50 -10 10 34 136 74 211 146 276 409 465 712 514 85 14 103 22 103 49 0
41 -25 45 -138 21 -59 -13 -141 -36 -183 -52 -222 -85 -431 -269 -556 -487
-40 -71 -103 -243 -103 -284 0 -10 -16 -26 -39 -37 -21 -11 -59 -41 -85 -66
-25 -26 -50 -44 -56 -40 -6 3 -7 0 -4 -9 7 -19 -12 -22 -19 -3 -4 9 -8 8 -16
-3 -9 -13 -11 -12 -11 3 0 10 -4 15 -10 12 -13 -8 -13 -105 0 -220 27 -232
166 -503 355 -690 299 -297 720 -429 1147 -361 531 86 958 493 1064 1016 32
154 33 379 4 520 -52 245 -147 432 -318 626 -79 89 -215 201 -294 241 -100 50
-169 79 -129 54z m-444 -151 c-3 -5 -12 -10 -18 -10 -7 0 -6 4 3 10 19 12 23
12 15 0z m526 -81 c76 -33 166 -139 117 -139 -6 0 -36 -12 -68 -26 l-57 -26
-39 21 c-80 43 -166 17 -208 -64 -18 -35 -21 -62 -24 -278 -3 -137 -1 -242 5
-248 5 -5 33 -4 71 2 l62 11 0 72 c0 90 13 135 53 188 50 66 113 100 195 106
89 6 131 -8 180 -62 44 -48 58 -99 47 -167 -11 -62 -42 -92 -101 -95 -27 -1
-55 3 -62 8 -9 8 -16 8 -24 0 -8 -8 -21 -5 -46 9 -20 10 -39 15 -42 11 -7 -10
-30 -14 -29 -5 4 23 -2 55 -8 49 -5 -4 -10 -159 -13 -344 l-5 -337 -70 -52
-70 -52 -3 250 -2 251 -43 -7 c-23 -3 -54 -8 -69 -11 l-28 -6 0 -181 c0 -157
-3 -188 -19 -224 -24 -53 -92 -118 -138 -134 -54 -17 -145 -7 -186 21 -60 41
-70 75 -75 250 -2 85 -9 161 -14 168 -16 19 -59 14 -85 -10 -23 -21 -23 -22
-23 -288 l0 -266 -70 -52 c-38 -28 -72 -52 -75 -52 -3 0 -5 138 -5 306 0 191
-4 313 -10 325 -15 28 -65 25 -95 -6 -25 -24 -25 -25 -25 -222 0 -109 -5 -215
-10 -235 -17 -59 -71 -130 -124 -162 -67 -42 -161 -48 -225 -14 -121 63 -148
207 -58 306 21 23 107 54 130 47 7 -2 25 -6 42 -10 16 -4 47 -25 68 -48 l39
-42 -3 180 c-1 99 -2 221 -1 272 l2 92 38 6 c110 17 102 18 102 -10 l0 -27 30
26 c60 50 130 55 198 14 17 -11 32 -15 32 -9 0 6 18 23 40 37 51 34 137 38
178 7 63 -47 67 -60 70 -241 3 -135 6 -170 19 -184 31 -35 86 -15 98 35 3 12
6 254 8 537 l2 515 33 67 c45 91 114 146 217 172 36 9 126 -4 176 -25z m-781
-506 c0 -65 -26 -128 -66 -156 -16 -12 -64 -24 -137 -34 -225 -30 -317 -39
-317 -29 0 5 37 46 83 90 115 114 262 183 395 185 l42 1 0 -57z m1100 -709
c-32 -82 -103 -185 -206 -293 -199 -211 -500 -354 -738 -350 -39 1 -64 3 -54
6 9 2 19 11 22 20 5 11 2 14 -9 9 -9 -3 -14 -2 -11 3 3 4 31 11 63 14 172 18
406 111 543 216 93 70 227 213 288 306 68 104 68 104 91 98 16 -4 18 -9 11
-29z m145 -130 c-30 -72 -125 -203 -215 -298 -123 -128 -238 -213 -385 -285
-161 -79 -280 -112 -456 -126 -54 -4 -57 -3 -55 18 0 13 8 24 16 24 8 1 71 13
139 28 198 42 314 90 470 193 105 69 273 230 352 337 33 44 68 90 78 102 10
12 16 25 12 29 -3 4 2 4 12 1 9 -4 17 -2 17 3 0 6 7 10 15 10 14 0 14 -4 0
-36z"/>
<path d="M1310 1010 l0 -180 40 0 40 0 1 128 1 127 35 -127 36 -128 31 0 32 0
36 128 37 127 0 -127 1 -128 40 0 40 0 0 180 0 181 -57 -3 c-64 -3 -53 13
-104 -158 l-23 -75 -36 115 -36 115 -57 3 -57 3 0 -181z"/>
<path d="M2260 1161 c0 -30 2 -31 41 -31 38 0 40 1 37 28 -3 23 -8 27 -40 30
-36 3 -38 2 -38 -27z"/>
<path d="M2896 1173 c-3 -10 -17 -81 -31 -158 -14 -77 -28 -150 -30 -162 -5
-21 -2 -23 34 -23 44 0 44 -1 61 100 12 68 31 100 60 100 36 0 41 -23 25 -106
-8 -44 -15 -82 -15 -86 0 -5 18 -8 40 -8 22 0 40 2 40 4 0 2 7 40 15 83 8 43
15 94 15 114 0 59 -55 90 -117 64 l-33 -14 6 54 7 55 -36 0 c-25 0 -37 -5 -41
-17z"/>
<path d="M3486 1173 c-3 -10 -16 -81 -31 -158 -14 -77 -28 -150 -30 -162 -5
-21 -2 -23 35 -23 22 0 40 4 40 9 0 6 12 3 28 -5 69 -36 153 4 193 91 24 52
24 92 -1 132 -25 42 -77 57 -131 39 l-39 -14 6 54 7 54 -36 0 c-25 0 -37 -5
-41 -17z m159 -166 c12 -19 13 -30 4 -56 -13 -36 -35 -51 -78 -51 -20 0 -34 7
-41 19 -16 30 -12 47 16 80 32 39 76 42 99 8z"/>
<path d="M2084 1099 c-41 -12 -67 -43 -67 -80 0 -38 17 -55 78 -78 27 -10 51
-24 53 -30 6 -17 -28 -26 -49 -13 -18 11 -89 17 -89 7 0 -21 29 -57 58 -71 60
-28 145 -1 158 53 12 48 -7 76 -66 100 -56 22 -80 53 -41 53 12 0 21 -4 21
-10 0 -5 18 -10 40 -10 29 0 40 4 40 15 0 20 -44 65 -64 65 -8 0 -20 2 -28 4
-7 2 -27 0 -44 -5z"/>
<path d="M2474 1099 c-18 -5 -46 -25 -63 -44 -26 -30 -31 -44 -31 -86 0 -30 7
-63 17 -80 19 -31 85 -69 121 -69 51 0 119 47 135 93 5 14 0 17 -37 17 -27 0
-48 -6 -56 -15 -17 -21 -63 -19 -83 3 -22 25 -21 75 1 95 25 23 54 21 85 -3
24 -19 97 -29 97 -12 0 4 -9 21 -20 39 -31 52 -106 80 -166 62z"/>
<path d="M1734 1085 c-3 -8 -4 -57 -2 -109 3 -83 6 -97 27 -120 32 -34 80 -42
120 -22 17 9 31 12 31 6 0 -5 16 -10 35 -10 l35 0 0 135 0 135 -40 0 -40 0 0
-88 c0 -94 -8 -112 -47 -112 -33 0 -43 29 -43 119 l0 81 -35 0 c-22 0 -38 -6
-41 -15z"/>
<path d="M2260 965 l0 -135 40 0 40 0 0 135 0 135 -40 0 -40 0 0 -135z"/>
<path d="M3156 1013 c-22 -118 -21 -139 9 -168 27 -28 66 -32 108 -11 15 8 27
11 27 5 0 -5 15 -9 34 -9 40 0 38 -4 61 125 8 50 18 102 21 118 5 26 4 27 -34
27 l-41 0 -10 -57 c-21 -114 -33 -138 -67 -141 -42 -4 -46 11 -29 104 8 41 15
80 15 85 0 5 -18 9 -39 9 l-39 0 -16 -87z"/>
</g>
</svg>
